<svg width="1200" height="630" viewBox="0 0 1200 630" fill="none" xmlns="http://www.w3.org/2000/svg">
  <defs>
    <linearGradient id="bg" x1="0" y1="0" x2="1" y2="1">
      <stop offset="0%" stop-color="#f7c7ff"/>
      <stop offset="50%" stop-color="#d9e5ff"/>
      <stop offset="100%" stop-color="#c9fff8"/>
    </linearGradient>
    <linearGradient id="glow" x1="0" y1="0" x2="1" y2="1">
      <stop offset="0%" stop-color="#ffffff" stop-opacity="0.8"/>
      <stop offset="100%" stop-color="#ffffff" stop-opacity="0.2"/>
    </linearGradient>
    <filter id="shadow" x="-20%" y="-20%" width="140%" height="140%" color-interpolation-filters="sRGB">
      <feDropShadow dx="0" dy="14" stdDeviation="28" flood-color="#8ba0c6" flood-opacity="0.35" />
    </filter>
  </defs>
  <rect width="1200" height="630" rx="48" fill="url(#bg)"/>
  <rect x="100" y="90" width="1000" height="450" rx="40" fill="#ffffff" opacity="0.6" filter="url(#shadow)" />
  <rect x="120" y="110" width="960" height="410" rx="32" fill="url(#glow)" opacity="0.75" />
  <text x="150" y="210" fill="#6b5b95" font-family="'Helvetica Neue', 'PingFang SC', 'Hiragino Sans', sans-serif" font-size="54" font-weight="700" letter-spacing="2">
    小雨的 N2 温柔练习本
  </text>
  <text x="150" y="270" fill="#7c6ab8" font-family="'Helvetica Neue', 'PingFang SC', 'Hiragino Sans', sans-serif" font-size="30" font-weight="500">
    10 分钟打卡 · 单词语法 · 间隔复习 · 轻测验
  </text>
  <g transform="translate(150 320)">
    <rect width="310" height="130" rx="28" fill="#fff7ff" stroke="#e3c6ff" stroke-width="2" filter="url(#shadow)" />
    <text x="28" y="58" fill="#6a4c93" font-family="'Helvetica Neue', 'PingFang SC', 'Hiragino Sans', sans-serif" font-size="28" font-weight="700">每日任务</text>
    <text x="28" y="94" fill="#7d6aa6" font-family="'Helvetica Neue', 'PingFang SC', 'Hiragino Sans', sans-serif" font-size="22" font-weight="500">单词 · 语法 · 小测试</text>
  </g>
  <g transform="translate(500 320)">
    <rect width="310" height="130" rx="28" fill="#f6fbff" stroke="#b6d8ff" stroke-width="2" filter="url(#shadow)" />
    <text x="28" y="58" fill="#4b6587" font-family="'Helvetica Neue', 'PingFang SC', 'Hiragino Sans', sans-serif" font-size="28" font-weight="700">温柔陪伴</text>
    <text x="28" y="94" fill="#5c7a9f" font-family="'Helvetica Neue', 'PingFang SC', 'Hiragino Sans', sans-serif" font-size="22" font-weight="500">鼓励文案 · 连续天数徽章</text>
  </g>
  <g transform="translate(850 320)">
    <rect width="200" height="130" rx="28" fill="#f1fff9" stroke="#b2f0d0" stroke-width="2" filter="url(#shadow)" />
    <text x="28" y="58" fill="#3d7c68" font-family="'Helvetica Neue', 'PingFang SC', 'Hiragino Sans', sans-serif" font-size="28" font-weight="700">轻量</text>
    <text x="28" y="94" fill="#3a6e61" font-family="'Helvetica Neue', 'PingFang SC', 'Hiragino Sans', sans-serif" font-size="22" font-weight="500">随时开启</text>
  </g>
  <circle cx="1040" cy="200" r="60" fill="#ffefff" stroke="#f2c1ff" stroke-width="3" />
  <path d="M1025 200c0-18 15-33 33-33 12 0 22 9 22 22 0 18-15 29-33 44-18-15-33-26-33-44 0-13 10-22 22-22z" fill="#ff8fb1" opacity="0.9" />
</svg>
